<?xml version="1.0" standalone="no"?>
<!DOCTYPE svg PUBLIC "-//W3C//DTD SVG 1.1//EN" "http://www.w3.org/Graphics/SVG/1.1/DTD/svg11.dtd">
<!--Generator: Xara Designer (www.xara.com), SVG filter version: 6.6.0.8-->
<svg fill="none" fill-rule="evenodd" stroke="black" stroke-width="0.501" stroke-linejoin="bevel" stroke-miterlimit="10" font-family="Times New Roman" font-size="16" style="font-variant-ligatures:none" xmlns:xlink="http://www.w3.org/1999/xlink" xmlns="http://www.w3.org/2000/svg" version="1.1" overflow="visible" width="464.176pt" height="211.949pt" viewBox="67.917 -325.548 464.176 211.949">
 <defs>
	</defs>
 <g id="Layer 1" transform="scale(1 -1)">
  <g id="Group" fill-rule="nonzero" stroke-linejoin="miter" stroke="none" stroke-width="0.713">
   <g id="Group_1" fill="#e30613">
    <path d="M 294.405,263.474 C 292.053,265.755 289.203,267.679 285.924,269.318 C 282.646,270.957 279.011,272.311 275.163,273.452 C 272.455,274.164 269.96,275.02 267.822,275.875 C 265.684,276.73 263.831,277.657 262.263,278.726 C 260.767,279.795 259.555,280.935 258.771,282.218 C 257.987,283.5 257.56,284.926 257.56,286.565 C 257.56,288.062 257.845,289.487 258.486,290.841 C 259.056,292.124 259.983,293.264 261.123,294.262 C 262.263,295.188 263.76,295.972 265.399,296.471 C 267.038,296.97 269.034,297.255 271.243,297.255 C 273.595,297.255 275.733,296.899 277.515,296.329 C 279.296,295.687 280.793,294.761 281.933,293.62 C 283.145,292.48 284,291.126 284.641,289.487 C 285.283,287.848 285.568,286.137 285.639,284.213 L 301.674,284.213 C 301.674,288.062 300.962,291.554 299.465,294.761 C 297.968,297.968 295.902,300.747 293.265,303.028 C 290.628,305.38 287.421,307.161 283.786,308.444 C 280.08,309.727 276.018,310.368 271.599,310.368 C 267.323,310.368 263.332,309.798 259.627,308.729 C 255.921,307.66 252.785,306.021 250.077,303.954 C 247.369,301.887 245.302,299.393 243.734,296.471 C 242.237,293.549 241.453,290.271 241.453,286.707 C 241.453,283.002 242.237,279.723 243.734,276.873 C 245.231,274.022 247.369,271.528 249.934,269.39 C 252.5,267.251 255.493,265.399 258.843,263.902 C 262.192,262.405 265.756,261.122 269.461,260.125 C 272.526,259.27 275.02,258.414 277.087,257.488 C 279.154,256.561 280.793,255.492 282.076,254.352 C 283.359,253.212 284.285,252 284.784,250.646 C 285.283,249.292 285.568,247.867 285.568,246.37 C 285.568,244.874 285.283,243.448 284.641,242.165 C 284,240.883 283.145,239.814 281.933,238.887 C 280.793,237.961 279.296,237.319 277.657,236.749 C 275.947,236.25 274.023,235.965 271.813,235.965 C 269.319,235.965 267.11,236.25 265.043,236.82 C 262.976,237.39 261.266,238.246 259.769,239.386 C 258.272,240.526 257.132,242.094 256.348,243.876 C 255.493,245.729 255.065,247.938 254.994,250.504 L 238.817,250.504 C 238.817,247.368 239.244,244.517 240.099,241.952 C 240.955,239.386 242.166,237.105 243.734,235.039 C 245.302,233.043 247.084,231.261 249.222,229.694 C 251.36,228.197 253.64,226.914 256.063,225.916 C 258.486,224.919 261.052,224.135 263.76,223.636 C 266.468,223.137 269.105,222.923 271.813,222.923 C 276.161,222.923 280.152,223.422 283.786,224.491 C 287.492,225.489 290.628,227.057 293.265,229.052 C 295.902,231.048 298.04,233.542 299.536,236.464 C 301.033,239.386 301.817,242.736 301.817,246.441 C 301.817,249.934 301.175,253.141 299.821,255.991 C 298.539,258.699 296.757,261.194 294.405,263.474 Z" marker-start="none" marker-end="none"/>
    <path d="M 364.39,299.678 C 361.681,303.028 358.332,305.593 354.412,307.518 C 350.492,309.37 346.003,310.297 341.085,310.297 C 336.168,310.297 331.82,309.37 327.972,307.518 C 324.195,305.665 320.988,303.028 318.351,299.678 C 315.714,296.329 313.718,292.338 312.364,287.776 C 311.01,283.144 310.298,278.155 310.298,272.668 L 310.298,260.267 C 310.298,254.78 311.01,249.791 312.364,245.159 C 313.718,240.597 315.714,236.607 318.351,233.257 C 320.988,229.907 324.195,227.342 328.043,225.489 C 331.892,223.636 336.239,222.709 341.156,222.709 C 346.074,222.709 350.492,223.636 354.412,225.489 C 358.332,227.342 361.681,229.907 364.39,233.257 C 367.098,236.607 369.236,240.526 370.661,245.159 C 372.086,249.791 372.799,254.78 372.799,260.267 L 372.799,272.668 C 372.799,278.155 372.086,283.144 370.661,287.776 C 369.236,292.338 367.098,296.329 364.39,299.678 Z M 356.123,260.196 C 356.123,256.704 355.838,253.497 355.267,250.575 C 354.697,247.653 353.771,245.087 352.63,243.021 C 351.419,240.883 349.922,239.243 347.998,238.032 C 346.074,236.82 343.865,236.25 341.156,236.25 C 338.448,236.25 336.239,236.892 334.386,238.032 C 332.604,239.243 331.179,240.954 330.039,243.092 C 328.97,245.23 328.186,247.795 327.687,250.717 C 327.188,253.639 326.974,256.846 326.974,260.267 L 326.974,272.81 C 326.974,276.302 327.188,279.509 327.687,282.431 C 328.186,285.353 328.97,287.848 330.039,289.986 C 331.108,292.124 332.604,293.763 334.386,294.975 C 336.168,296.186 338.377,296.756 341.085,296.756 C 343.793,296.756 346.074,296.186 347.998,294.975 C 349.922,293.763 351.419,292.124 352.63,289.986 C 353.842,287.848 354.697,285.353 355.267,282.431 C 355.837,279.509 356.123,276.302 356.123,272.81 L 356.123,260.196 Z" marker-start="none" marker-end="none"/>
    <path d="M 456.681,166.836 C 455.469,168.546 453.973,170.043 452.191,171.254 C 450.409,172.537 448.271,173.464 445.848,174.105 C 449.91,175.744 452.975,178.167 455.042,181.303 C 457.108,184.439 458.177,188.073 458.249,191.993 C 458.249,195.984 457.536,199.405 456.039,202.327 C 454.543,205.249 452.476,207.672 449.768,209.596 C 447.06,211.52 443.853,212.946 440.004,213.872 C 436.227,214.799 431.951,215.298 427.319,215.298 L 404.798,215.298 L 402.09,223.85 L 417.056,223.85 L 442.855,309.157 L 424.682,309.157 L 408.575,247.724 L 392.683,309.157 L 375.507,309.157 L 375.507,309.228 L 370.376,325.548 L 368.452,325.548 L 373.583,309.228 L 402.874,215.298 L 417.769,167.62 L 425.394,143.318 L 429.528,129.99 L 429.528,129.99 L 434.659,113.599 L 436.583,113.599 L 431.452,129.99 L 431.452,130.062 C 435.514,130.204 439.149,130.703 442.427,131.63 C 446.205,132.699 449.34,134.267 451.977,136.405 C 454.614,138.543 456.61,141.108 458.035,144.244 C 459.46,147.38 460.173,150.943 460.173,155.077 C 460.173,157.215 459.888,159.281 459.318,161.348 C 458.748,163.272 457.892,165.125 456.681,166.836 Z M 415.274,182.087 L 415.274,201.899 L 427.461,201.899 C 432.094,201.828 435.657,200.973 438.151,199.262 C 440.646,197.552 441.857,194.63 441.857,190.71 C 441.786,187.076 440.574,184.296 438.08,182.443 C 435.657,180.59 432.094,179.593 427.532,179.593 L 416.13,179.593 L 415.274,182.087 Z M 440.218,146.596 C 437.866,144.458 434.445,143.318 429.956,143.318 L 427.39,143.318 L 419.836,167.62 L 430.668,167.62 C 435.158,167.548 438.508,166.479 440.646,164.27 C 442.784,162.061 443.853,159.068 443.781,155.148 C 443.71,151.585 442.57,148.734 440.218,146.596 Z" marker-start="none" marker-end="none"/>
    <path d="M 531.298,161.206 C 530.728,163.201 529.872,165.054 528.661,166.764 C 527.449,168.475 525.953,169.971 524.171,171.183 C 522.389,172.466 520.251,173.392 517.757,174.034 C 521.819,175.673 524.884,178.096 526.95,181.232 C 529.017,184.368 530.086,188.002 530.158,191.922 C 530.158,195.913 529.445,199.334 527.948,202.256 C 526.452,205.178 524.385,207.601 521.677,209.525 C 518.969,211.449 515.762,212.874 511.913,213.801 C 508.136,214.727 503.86,215.226 499.227,215.226 L 470.578,215.226 L 470.578,129.919 L 501.651,129.919 C 506.354,129.919 510.559,130.418 514.336,131.487 C 518.113,132.556 521.249,134.124 523.886,136.262 C 526.523,138.4 528.518,140.966 529.944,144.101 C 531.369,147.237 532.082,150.801 532.082,154.934 C 532.153,157.143 531.868,159.21 531.298,161.206 Z M 487.255,201.828 L 499.441,201.828 C 504.074,201.757 507.637,200.902 510.131,199.191 C 512.626,197.481 513.837,194.559 513.837,190.639 C 513.837,187.004 512.554,184.225 510.06,182.372 C 507.637,180.519 504.074,179.521 499.513,179.521 L 487.255,179.521 L 487.255,201.828 Z M 512.198,146.596 C 509.846,144.458 506.425,143.318 501.936,143.318 L 487.326,143.318 L 487.326,167.62 L 502.648,167.62 C 507.138,167.548 510.488,166.479 512.626,164.27 C 514.764,162.061 515.833,159.068 515.761,155.148 C 515.69,151.585 514.55,148.734 512.198,146.596 Z" marker-start="none" marker-end="none"/>
   </g>
   <g id="Group_2" fill="#000000">
    <path d="M 75.115,200.688 C 72.906,201.329 71.267,202.113 70.269,203.04 C 69.271,203.966 68.773,205.106 68.773,206.46 C 68.773,208.028 69.414,209.24 70.625,210.309 C 71.837,211.307 73.476,211.805 75.4,211.805 C 76.754,211.805 77.966,211.52 78.964,211.021 C 80.033,210.523 80.817,209.81 81.387,208.883 C 81.957,207.957 82.242,206.959 82.242,205.89 L 79.676,205.89 C 79.676,207.102 79.32,208.028 78.536,208.67 C 77.752,209.382 76.754,209.667 75.329,209.667 C 74.046,209.667 73.049,209.382 72.336,208.812 C 71.623,208.242 71.267,207.458 71.267,206.46 C 71.267,205.676 71.623,204.964 72.265,204.465 C 72.906,203.895 74.118,203.396 75.685,202.968 C 77.253,202.541 78.607,202.042 79.463,201.472 C 80.389,200.902 81.031,200.26 81.529,199.547 C 81.957,198.835 82.171,197.98 82.171,196.982 C 82.171,195.414 81.529,194.131 80.318,193.205 C 79.106,192.278 77.467,191.779 75.329,191.779 C 73.975,191.779 72.763,192.064 71.552,192.563 C 70.412,193.062 69.485,193.775 68.844,194.701 C 68.202,195.628 67.917,196.625 67.917,197.766 L 70.483,197.766 C 70.483,196.554 70.911,195.628 71.766,194.986 C 72.621,194.274 73.833,193.989 75.258,193.989 C 76.612,193.989 77.681,194.274 78.394,194.844 C 79.106,195.414 79.463,196.127 79.463,197.124 C 79.463,198.122 79.106,198.835 78.465,199.334 C 78.109,199.69 76.826,200.189 75.115,200.688 Z" marker-start="none" marker-end="none"/>
    <path d="M 100.558,201.115 C 100.558,199.191 100.201,197.552 99.56,196.127 C 98.919,194.701 97.992,193.632 96.852,192.848 C 95.64,192.064 94.286,191.708 92.718,191.708 C 91.15,191.708 89.796,192.064 88.656,192.848 C 87.445,193.632 86.518,194.701 85.877,196.055 C 85.235,197.481 84.879,199.049 84.879,200.902 L 84.879,202.327 C 84.879,204.18 85.235,205.89 85.877,207.316 C 86.518,208.741 87.445,209.881 88.656,210.594 C 89.868,211.378 91.222,211.734 92.79,211.734 C 94.358,211.734 95.712,211.378 96.923,210.594 C 98.135,209.81 99.061,208.741 99.703,207.316 C 100.344,205.89 100.7,204.18 100.7,202.327 L 100.7,201.115 L 100.558,201.115 Z M 97.992,202.398 C 97.992,204.75 97.493,206.46 96.567,207.743 C 95.64,208.955 94.357,209.596 92.647,209.596 C 91.008,209.596 89.725,208.955 88.799,207.743 C 87.872,206.532 87.373,204.75 87.373,202.612 L 87.373,201.187 C 87.373,198.906 87.872,197.196 88.799,195.913 C 89.725,194.63 91.008,193.989 92.718,193.989 C 94.358,193.989 95.64,194.63 96.567,195.842 C 97.493,197.053 97.921,198.764 97.992,201.044 L 97.992,202.398 Z" marker-start="none" marker-end="none"/>
    <path d="M 106.758,194.131 L 116.023,194.131 L 116.023,191.993 L 104.192,191.993 L 104.192,211.52 L 106.758,211.52 L 106.758,194.131 Z" marker-start="none" marker-end="none"/>
    <path d="M 133.198,201.115 C 133.198,199.191 132.842,197.552 132.2,196.127 C 131.559,194.701 130.633,193.632 129.492,192.848 C 128.281,192.064 126.927,191.708 125.359,191.708 C 123.791,191.708 122.437,192.064 121.297,192.848 C 120.085,193.632 119.159,194.701 118.517,196.055 C 117.876,197.481 117.519,199.049 117.519,200.902 L 117.519,202.327 C 117.519,204.18 117.876,205.89 118.517,207.316 C 119.159,208.741 120.085,209.881 121.297,210.594 C 122.508,211.378 123.862,211.734 125.43,211.734 C 126.998,211.734 128.352,211.378 129.564,210.594 C 130.775,209.81 131.702,208.741 132.343,207.316 C 132.984,205.89 133.341,204.18 133.341,202.327 L 133.341,201.115 L 133.198,201.115 Z M 130.633,202.398 C 130.633,204.75 130.134,206.46 129.207,207.743 C 128.281,208.955 126.998,209.596 125.288,209.596 C 123.648,209.596 122.366,208.955 121.439,207.743 C 120.513,206.532 120.014,204.75 120.014,202.612 L 120.014,201.187 C 120.014,198.906 120.513,197.196 121.439,195.913 C 122.366,194.63 123.648,193.989 125.359,193.989 C 126.998,193.989 128.281,194.63 129.207,195.842 C 130.134,197.053 130.561,198.764 130.633,201.044 L 130.633,202.398 Z" marker-start="none" marker-end="none"/>
    <path d="M 149.732,209.454 L 143.461,209.454 L 143.461,191.993 L 140.895,191.993 L 140.895,209.454 L 134.624,209.454 L 134.624,211.592 L 149.732,211.592 L 149.732,209.454 L 149.732,209.454 Z" marker-start="none" marker-end="none"/>
    <path d="M 167.549,191.993 L 164.983,191.993 L 164.983,201.044 L 155.149,201.044 L 155.149,191.993 L 152.583,191.993 L 152.583,211.52 L 155.149,211.52 L 155.149,203.111 L 164.983,203.111 L 164.983,211.52 L 167.549,211.52 L 167.549,191.993 Z" marker-start="none" marker-end="none"/>
    <path d="M 185.794,211.52 L 185.794,198.265 C 185.794,196.412 185.223,194.915 184.083,193.775 C 182.943,192.635 181.375,191.922 179.379,191.779 L 178.667,191.779 C 176.529,191.779 174.818,192.349 173.536,193.49 C 172.253,194.63 171.611,196.198 171.611,198.265 L 171.611,211.592 L 174.177,211.592 L 174.177,198.336 C 174.177,196.911 174.533,195.842 175.317,195.058 C 176.101,194.274 177.17,193.917 178.667,193.917 C 180.092,193.917 181.232,194.274 182.016,195.058 C 182.8,195.842 183.157,196.911 183.157,198.336 L 183.157,211.592 L 185.794,211.592 L 185.794,211.52 Z" marker-start="none" marker-end="none"/>
    <path d="M 196.983,199.904 L 192.421,199.904 L 192.421,191.993 L 189.856,191.993 L 189.856,211.52 L 196.341,211.52 C 198.55,211.52 200.261,211.022 201.401,210.024 C 202.613,209.026 203.183,207.529 203.183,205.676 C 203.183,204.465 202.826,203.396 202.185,202.469 C 201.544,201.543 200.617,200.902 199.406,200.474 L 203.967,192.207 L 203.967,192.064 L 201.187,192.064 L 196.983,199.904 Z M 192.421,202.042 L 196.412,202.042 C 197.695,202.042 198.693,202.398 199.477,203.04 C 200.261,203.681 200.617,204.607 200.617,205.676 C 200.617,206.888 200.261,207.814 199.548,208.456 C 198.835,209.097 197.766,209.454 196.412,209.454 L 192.493,209.454 L 192.421,202.042 L 192.421,202.042 Z" marker-start="none" marker-end="none"/>
    <path d="M 221.712,191.993 L 219.147,191.993 L 209.312,207.031 L 209.312,191.993 L 206.746,191.993 L 206.746,211.52 L 209.312,211.52 L 219.147,196.412 L 219.147,211.52 L 221.712,211.52 L 221.712,191.993 Z" marker-start="none" marker-end="none"/>
    <path d="M 237.106,201.044 L 228.625,201.044 L 228.625,194.131 L 238.46,194.131 L 238.46,191.993 L 226.06,191.993 L 226.06,211.52 L 238.318,211.52 L 238.318,209.382 L 228.625,209.382 L 228.625,203.111 L 237.106,203.111 L 237.106,201.044 Z" marker-start="none" marker-end="none"/>
    <path d="M 248.58,199.904 L 244.019,199.904 L 244.019,191.993 L 241.453,191.993 L 241.453,211.52 L 247.939,211.52 C 250.148,211.52 251.858,211.022 252.999,210.024 C 254.21,209.026 254.78,207.529 254.78,205.676 C 254.78,204.465 254.424,203.396 253.783,202.469 C 253.141,201.543 252.215,200.902 251.003,200.474 L 255.564,192.207 L 255.564,192.064 L 252.785,192.064 L 248.58,199.904 Z M 244.019,202.042 L 248.01,202.042 C 249.293,202.042 250.291,202.398 251.074,203.04 C 251.858,203.681 252.215,204.607 252.215,205.676 C 252.215,206.888 251.858,207.814 251.146,208.456 C 250.433,209.097 249.364,209.454 248.01,209.454 L 244.09,209.454 L 244.019,202.042 L 244.019,202.042 Z" marker-start="none" marker-end="none"/>
    <path d="M 271.599,195.414 L 277.158,211.52 L 280.009,211.52 L 272.74,191.993 L 270.459,191.993 L 263.19,211.52 L 265.969,211.52 L 271.599,195.414 Z" marker-start="none" marker-end="none"/>
    <path d="M 293.906,201.044 L 285.425,201.044 L 285.425,194.131 L 295.26,194.131 L 295.26,191.993 L 282.86,191.993 L 282.86,211.52 L 295.118,211.52 L 295.118,209.382 L 285.425,209.382 L 285.425,203.111 L 293.906,203.111 L 293.906,201.044 Z" marker-start="none" marker-end="none"/>
    <path d="M 305.594,199.904 L 301.033,199.904 L 301.033,191.993 L 298.467,191.993 L 298.467,211.52 L 304.953,211.52 C 307.162,211.52 308.872,211.022 310.013,210.024 C 311.153,209.026 311.794,207.529 311.794,205.676 C 311.794,204.465 311.438,203.396 310.797,202.469 C 310.155,201.543 309.229,200.902 308.017,200.474 L 312.578,192.207 L 312.578,192.064 L 309.799,192.064 L 305.594,199.904 Z M 300.962,202.042 L 304.953,202.042 C 306.235,202.042 307.233,202.398 308.017,203.04 C 308.801,203.681 309.157,204.607 309.157,205.676 C 309.157,206.888 308.801,207.814 308.088,208.456 C 307.376,209.097 306.307,209.454 304.953,209.454 L 301.033,209.454 L 300.962,202.042 L 300.962,202.042 Z" marker-start="none" marker-end="none"/>
    <path d="M 315.5,191.993 L 315.5,211.52 L 321.914,211.52 C 324.052,211.52 325.62,211.093 326.689,210.238 C 327.758,209.382 328.328,208.028 328.328,206.318 C 328.328,205.391 328.043,204.607 327.544,203.895 C 327.045,203.182 326.333,202.683 325.406,202.256 C 326.475,201.971 327.331,201.4 327.901,200.545 C 328.471,199.69 328.827,198.764 328.827,197.552 C 328.827,195.77 328.257,194.416 327.117,193.419 C 325.976,192.421 324.409,191.922 322.271,191.922 L 315.5,191.993 L 315.5,191.993 Z M 318.066,203.182 L 321.985,203.182 C 323.126,203.182 323.981,203.467 324.694,204.037 C 325.406,204.607 325.691,205.391 325.691,206.318 C 325.691,207.387 325.406,208.171 324.765,208.67 C 324.124,209.169 323.197,209.382 321.914,209.382 L 318.137,209.382 L 318.066,203.182 L 318.066,203.182 Z M 318.066,201.115 L 318.066,194.06 L 322.342,194.06 C 323.553,194.06 324.48,194.345 325.193,194.986 C 325.905,195.628 326.262,196.483 326.262,197.552 C 326.262,199.904 324.979,201.115 322.413,201.115 L 318.066,201.115 Z" marker-start="none" marker-end="none"/>
    <path d="M 343.223,197.124 L 335.027,197.124 L 333.174,191.993 L 330.538,191.993 L 338.021,211.52 L 340.301,211.52 L 347.784,191.993 L 345.147,191.993 L 343.223,197.124 Z M 335.811,199.191 L 342.439,199.191 L 339.09,208.313 L 335.811,199.191 Z" marker-start="none" marker-end="none"/>
    <path d="M 365.601,191.993 L 363.035,191.993 L 353.201,207.031 L 353.201,191.993 L 350.635,191.993 L 350.635,211.52 L 353.201,211.52 L 363.035,196.412 L 363.035,211.52 L 365.601,211.52 L 365.601,191.993 Z" marker-start="none" marker-end="none"/>
    <path d="M 370.091,191.993 L 370.091,211.52 L 375.579,211.52 C 377.289,211.52 378.786,211.164 380.068,210.38 C 381.351,209.596 382.349,208.527 383.062,207.173 C 383.774,205.819 384.131,204.18 384.131,202.398 L 384.131,201.115 C 384.131,199.262 383.774,197.623 383.062,196.269 C 382.349,194.915 381.351,193.846 379.997,193.062 C 378.643,192.349 377.146,191.922 375.365,191.922 L 370.091,191.922 L 370.091,191.993 Z M 372.657,209.454 L 372.657,194.131 L 375.365,194.131 C 377.36,194.131 378.928,194.773 379.997,195.984 C 381.066,197.196 381.636,198.977 381.636,201.258 L 381.636,202.398 C 381.636,204.607 381.137,206.318 380.068,207.601 C 378.999,208.812 377.574,209.454 375.65,209.454 L 372.657,209.454 Z" marker-start="none" marker-end="none"/>
    <path d="M 247.083,170.114 L 238.888,170.114 L 238.888,161.491 L 236.322,161.491 L 236.322,181.018 L 248.438,181.018 L 248.438,178.88 L 238.888,178.88 L 238.888,172.181 L 247.083,172.181 L 247.083,170.114 Z" marker-start="none" marker-end="none"/>
    <path d="M 265.185,181.018 L 265.185,167.691 C 265.185,165.838 264.615,164.341 263.475,163.201 C 262.335,162.061 260.767,161.348 258.771,161.206 L 258.059,161.206 C 255.921,161.206 254.21,161.776 252.927,162.916 C 251.645,164.056 251.003,165.624 251.003,167.691 L 251.003,181.018 L 253.569,181.018 L 253.569,167.762 C 253.569,166.337 253.925,165.268 254.709,164.484 C 255.493,163.7 256.562,163.344 258.059,163.344 C 259.484,163.344 260.624,163.7 261.408,164.484 C 262.192,165.268 262.549,166.337 262.549,167.762 L 262.549,181.018 L 265.185,181.018 L 265.185,181.018 Z M 253.854,184.011 C 253.854,184.439 253.996,184.724 254.21,185.009 C 254.424,185.294 254.852,185.437 255.279,185.437 C 255.778,185.437 256.134,185.294 256.348,185.009 C 256.633,184.724 256.705,184.368 256.705,184.011 C 256.705,183.655 256.562,183.299 256.348,183.013 C 256.063,182.728 255.707,182.586 255.279,182.586 C 254.78,182.586 254.424,182.728 254.21,183.013 C 253.925,183.299 253.854,183.584 253.854,184.011 Z M 259.627,184.011 C 259.627,184.439 259.769,184.724 259.983,185.009 C 260.197,185.294 260.624,185.437 261.052,185.437 C 261.551,185.437 261.907,185.294 262.121,185.009 C 262.406,184.724 262.477,184.368 262.477,184.011 C 262.477,183.584 262.335,183.299 262.121,183.013 C 261.836,182.728 261.479,182.586 261.052,182.586 C 260.553,182.586 260.197,182.728 259.983,183.013 C 259.698,183.227 259.627,183.584 259.627,184.011 Z" marker-start="none" marker-end="none"/>
    <path d="M 276.446,169.33 L 271.885,169.33 L 271.885,161.419 L 269.319,161.419 L 269.319,180.947 L 275.804,180.947 C 278.014,180.947 279.724,180.448 280.864,179.45 C 282.076,178.452 282.646,176.956 282.646,175.103 C 282.646,173.891 282.29,172.822 281.648,171.896 C 281.007,170.969 280.08,170.328 278.869,169.9 L 283.43,161.633 L 283.43,161.491 L 280.65,161.491 L 276.446,169.33 Z M 271.885,171.468 L 275.876,171.468 C 277.158,171.468 278.156,171.824 278.94,172.466 C 279.724,173.107 280.08,174.034 280.08,175.103 C 280.08,176.314 279.724,177.241 279.011,177.882 C 278.299,178.524 277.23,178.88 275.876,178.88 L 271.956,178.88 L 271.885,171.468 L 271.885,171.468 Z" marker-start="none" marker-end="none"/>
    <path d="M 292.98,161.419 L 292.98,180.947 L 299.394,180.947 C 301.532,180.947 303.1,180.519 304.169,179.664 C 305.238,178.809 305.808,177.455 305.808,175.744 C 305.808,174.818 305.523,174.034 305.024,173.321 C 304.525,172.608 303.812,172.11 302.886,171.682 C 303.955,171.397 304.81,170.827 305.38,169.972 C 305.95,169.116 306.307,168.19 306.307,166.978 C 306.307,165.197 305.737,163.843 304.596,162.845 C 303.456,161.847 301.888,161.348 299.75,161.348 L 292.98,161.419 L 292.98,161.419 Z M 295.617,172.68 L 299.536,172.68 C 300.677,172.68 301.532,172.965 302.244,173.535 C 302.957,174.105 303.242,174.889 303.242,175.815 C 303.242,176.884 302.957,177.668 302.316,178.167 C 301.674,178.666 300.748,178.88 299.465,178.88 L 295.688,178.88 L 295.617,172.68 L 295.617,172.68 Z M 295.617,170.613 L 295.617,163.557 L 299.893,163.557 C 301.104,163.557 302.031,163.843 302.743,164.484 C 303.456,165.125 303.812,165.981 303.812,167.05 C 303.812,169.401 302.529,170.613 299.964,170.613 L 295.617,170.613 Z" marker-start="none" marker-end="none"/>
    <path d="M 320.916,170.47 L 312.436,170.47 L 312.436,163.557 L 322.271,163.557 L 322.271,161.419 L 309.87,161.419 L 309.87,180.947 L 322.128,180.947 L 322.128,178.809 L 312.436,178.809 L 312.436,172.537 L 320.916,172.537 L 320.916,170.47 Z" marker-start="none" marker-end="none"/>
    <path d="M 332.391,169.33 L 327.829,169.33 L 327.829,161.419 L 325.264,161.419 L 325.264,180.947 L 331.749,180.947 C 333.958,180.947 335.669,180.448 336.809,179.45 C 337.949,178.452 338.591,176.956 338.591,175.103 C 338.591,173.891 338.234,172.822 337.593,171.896 C 336.952,170.969 336.025,170.328 334.814,169.9 L 339.375,161.633 L 339.375,161.491 L 336.595,161.491 L 332.391,169.33 Z M 327.758,171.468 L 331.749,171.468 C 333.032,171.468 334.03,171.824 334.814,172.466 C 335.598,173.107 335.954,174.034 335.954,175.103 C 335.954,176.314 335.598,177.241 334.885,177.882 C 334.172,178.524 333.103,178.88 331.749,178.88 L 327.829,178.88 L 327.758,171.468 L 327.758,171.468 Z" marker-start="none" marker-end="none"/>
    <path d="M 355.766,181.018 L 355.766,167.691 C 355.766,165.838 355.196,164.341 354.056,163.201 C 352.916,162.061 351.348,161.348 349.352,161.206 L 348.639,161.206 C 346.501,161.206 344.791,161.776 343.508,162.916 C 342.225,164.056 341.584,165.624 341.584,167.691 L 341.584,181.018 L 344.15,181.018 L 344.15,167.762 C 344.15,166.337 344.506,165.268 345.29,164.484 C 346.074,163.7 347.143,163.344 348.639,163.344 C 350.065,163.344 351.205,163.7 351.989,164.484 C 352.773,165.268 353.129,166.337 353.129,167.762 L 353.129,181.018 L 355.766,181.018 L 355.766,181.018 Z" marker-start="none" marker-end="none"/>
    <path d="M 370.59,170.114 L 362.394,170.114 L 362.394,161.491 L 359.828,161.491 L 359.828,181.018 L 371.944,181.018 L 371.944,178.88 L 362.394,178.88 L 362.394,172.181 L 370.59,172.181 L 370.59,170.114 Z" marker-start="none" marker-end="none"/>
    <path d="M 380.496,170.185 C 378.287,170.827 376.648,171.611 375.65,172.537 C 374.652,173.464 374.153,174.604 374.153,175.958 C 374.153,177.526 374.795,178.737 376.006,179.806 C 377.218,180.804 378.857,181.303 380.781,181.303 C 382.135,181.303 383.347,181.018 384.344,180.519 C 385.413,180.02 386.197,179.308 386.768,178.381 C 387.338,177.455 387.623,176.457 387.623,175.388 L 385.057,175.388 C 385.057,176.599 384.701,177.526 383.917,178.167 C 383.133,178.88 382.135,179.165 380.71,179.165 C 379.427,179.165 378.429,178.88 377.717,178.31 C 377.004,177.74 376.648,176.956 376.648,175.958 C 376.648,175.174 377.004,174.461 377.645,173.962 C 378.287,173.392 379.498,172.893 381.066,172.466 C 382.705,172.038 383.988,171.539 384.843,170.969 C 385.699,170.399 386.411,169.758 386.91,169.045 C 387.338,168.332 387.552,167.477 387.552,166.479 C 387.552,164.911 386.91,163.629 385.699,162.702 C 384.487,161.776 382.848,161.277 380.71,161.277 C 379.356,161.277 378.144,161.562 376.933,162.061 C 375.793,162.56 374.866,163.272 374.225,164.199 C 373.583,165.125 373.298,166.123 373.298,167.263 L 375.864,167.263 C 375.864,166.052 376.291,165.125 377.147,164.484 C 378.002,163.771 379.213,163.486 380.639,163.486 C 381.993,163.486 383.062,163.771 383.774,164.341 C 384.487,164.911 384.843,165.624 384.843,166.622 C 384.843,167.62 384.487,168.332 383.846,168.831 C 383.489,169.116 382.206,169.686 380.496,170.185 Z" marker-start="none" marker-end="none"/>
    <path d="M 396.389,168.76 L 389.832,168.76 L 389.832,170.755 L 396.389,170.755 L 396.389,168.76 Z" marker-start="none" marker-end="none"/>
    <path d="M 130.419,130.917 L 130.419,150.444 L 136.833,150.444 C 138.971,150.444 140.539,150.017 141.608,149.161 C 142.677,148.306 143.247,146.952 143.247,145.242 C 143.247,144.315 142.962,143.531 142.463,142.819 C 141.964,142.106 141.251,141.607 140.325,141.18 C 141.394,140.894 142.249,140.324 142.819,139.469 C 143.389,138.614 143.746,137.687 143.746,136.476 C 143.746,134.694 143.176,133.34 142.035,132.342 C 140.895,131.345 139.327,130.846 137.189,130.846 L 130.419,130.917 L 130.419,130.917 Z M 132.984,142.106 L 136.904,142.106 C 138.044,142.106 138.9,142.391 139.612,142.961 C 140.254,143.531 140.61,144.315 140.61,145.242 C 140.61,146.311 140.325,147.095 139.684,147.594 C 139.042,148.092 138.116,148.306 136.833,148.306 L 133.056,148.306 L 132.984,142.106 L 132.984,142.106 Z M 132.984,140.039 L 132.984,132.984 L 137.26,132.984 C 138.472,132.984 139.398,133.269 140.111,133.91 C 140.824,134.552 141.18,135.407 141.18,136.476 C 141.18,138.828 139.897,140.039 137.332,140.039 L 132.984,140.039 Z" marker-start="none" marker-end="none"/>
    <path d="M 158.284,139.968 L 149.804,139.968 L 149.804,133.055 L 159.638,133.055 L 159.638,130.917 L 147.238,130.917 L 147.238,150.444 L 159.496,150.444 L 159.496,148.306 L 149.804,148.306 L 149.804,142.035 L 158.284,142.035 L 158.284,139.968 Z" marker-start="none" marker-end="none"/>
    <path d="M 165.269,130.917 L 162.703,130.917 L 162.703,150.444 L 165.269,150.444 L 165.269,130.917 Z" marker-start="none" marker-end="none"/>
    <path d="M 175.46,139.612 C 173.25,140.253 171.611,141.037 170.614,141.963 C 169.616,142.89 169.117,144.03 169.117,145.384 C 169.117,146.952 169.758,148.164 170.97,149.233 C 172.181,150.23 173.821,150.729 175.745,150.729 C 177.099,150.729 178.31,150.444 179.308,149.945 C 180.377,149.446 181.161,148.734 181.731,147.807 C 182.301,146.881 182.586,145.883 182.586,144.814 L 180.021,144.814 C 180.021,146.026 179.665,146.952 178.881,147.594 C 178.097,148.306 177.099,148.591 175.674,148.591 C 174.391,148.591 173.393,148.306 172.68,147.736 C 171.968,147.166 171.611,146.382 171.611,145.384 C 171.611,144.6 171.968,143.888 172.609,143.389 C 173.25,142.819 174.462,142.32 176.03,141.892 C 177.598,141.465 178.952,140.966 179.807,140.396 C 180.734,139.825 181.375,139.184 181.874,138.471 C 182.301,137.759 182.515,136.903 182.515,135.906 C 182.515,134.338 181.874,133.055 180.662,132.128 C 179.451,131.202 177.812,130.703 175.674,130.703 C 174.319,130.703 173.108,130.988 171.896,131.487 C 170.756,131.986 169.83,132.699 169.188,133.625 C 168.547,134.552 168.262,135.549 168.262,136.69 L 170.827,136.69 C 170.827,135.478 171.255,134.552 172.11,133.91 C 172.965,133.198 174.177,132.912 175.602,132.912 C 176.956,132.912 178.025,133.198 178.738,133.768 C 179.451,134.338 179.807,135.05 179.807,136.048 C 179.807,137.046 179.451,137.759 178.809,138.258 C 178.453,138.614 177.241,139.113 175.46,139.612 Z" marker-start="none" marker-end="none"/>
    <path d="M 199.477,148.306 L 193.205,148.306 L 193.205,130.846 L 190.64,130.846 L 190.64,148.306 L 184.368,148.306 L 184.368,150.444 L 199.477,150.444 L 199.477,148.306 L 199.477,148.306 Z" marker-start="none" marker-end="none"/>
    <path d="M 210.737,136.048 L 202.541,136.048 L 200.688,130.917 L 198.052,130.917 L 205.535,150.444 L 207.815,150.444 L 215.298,130.917 L 212.661,130.917 L 210.737,136.048 Z M 203.325,138.115 L 209.953,138.115 L 206.604,147.237 L 203.325,138.115 Z" marker-start="none" marker-end="none"/>
    <path d="M 232.973,130.917 L 230.407,130.917 L 220.572,145.954 L 220.572,130.917 L 218.006,130.917 L 218.006,150.444 L 220.572,150.444 L 230.407,135.336 L 230.407,150.444 L 232.973,150.444 L 232.973,130.917 Z" marker-start="none" marker-end="none"/>
    <path d="M 237.249,130.917 L 237.249,150.444 L 242.736,150.444 C 244.447,150.444 245.943,150.088 247.226,149.304 C 248.509,148.52 249.507,147.451 250.219,146.097 C 250.932,144.743 251.288,143.104 251.288,141.322 L 251.288,140.039 C 251.288,138.186 250.932,136.547 250.219,135.193 C 249.507,133.839 248.509,132.77 247.155,131.986 C 245.801,131.273 244.304,130.846 242.522,130.846 L 237.249,130.846 L 237.249,130.917 Z M 239.885,148.306 L 239.885,132.984 L 242.594,132.984 C 244.589,132.984 246.157,133.625 247.226,134.837 C 248.366,136.048 248.865,137.83 248.865,140.11 L 248.865,141.322 C 248.865,143.531 248.366,145.242 247.297,146.525 C 246.228,147.736 244.803,148.377 242.879,148.377 L 239.885,148.377 L 239.885,148.306 Z" marker-start="none" marker-end="none"/>
    <path d="M 260.838,139.612 C 258.629,140.253 256.99,141.037 255.992,141.963 C 254.994,142.89 254.495,144.03 254.495,145.384 C 254.495,146.952 255.137,148.164 256.348,149.233 C 257.56,150.23 259.199,150.729 261.123,150.729 C 262.477,150.729 263.689,150.444 264.687,149.945 C 265.756,149.446 266.539,148.734 267.11,147.807 C 267.68,146.881 267.965,145.883 267.965,144.814 L 265.399,144.814 C 265.399,146.026 265.043,146.952 264.259,147.594 C 263.475,148.306 262.477,148.591 261.052,148.591 C 259.769,148.591 258.771,148.306 258.059,147.736 C 257.346,147.166 256.99,146.382 256.99,145.384 C 256.99,144.6 257.346,143.888 257.987,143.389 C 258.629,142.819 259.84,142.32 261.408,141.892 C 262.976,141.465 264.33,140.966 265.185,140.396 C 266.112,139.825 266.753,139.184 267.252,138.471 C 267.68,137.759 267.894,136.903 267.894,135.906 C 267.894,134.338 267.252,133.055 266.041,132.128 C 264.829,131.202 263.19,130.703 261.052,130.703 C 259.698,130.703 258.486,130.988 257.275,131.487 C 256.134,131.986 255.208,132.699 254.567,133.625 C 253.925,134.552 253.64,135.549 253.64,136.69 L 256.206,136.69 C 256.206,135.478 256.633,134.552 257.489,133.91 C 258.344,133.198 259.555,132.912 260.981,132.912 C 262.335,132.912 263.404,133.198 264.116,133.768 C 264.829,134.338 265.185,135.05 265.185,136.048 C 265.185,137.046 264.829,137.759 264.188,138.258 C 263.831,138.614 262.62,139.113 260.838,139.612 Z" marker-start="none" marker-end="none"/>
    <path d="M 273.951,138.543 L 273.951,130.917 L 271.386,130.917 L 271.386,150.444 L 278.584,150.444 C 280.722,150.444 282.432,149.874 283.644,148.805 C 284.855,147.736 285.497,146.239 285.497,144.458 C 285.497,142.534 284.926,141.108 283.715,140.11 C 282.503,139.113 280.864,138.543 278.655,138.543 L 273.951,138.543 L 273.951,138.543 Z M 273.951,140.681 L 278.584,140.681 C 279.938,140.681 281.007,141.037 281.719,141.678 C 282.432,142.32 282.788,143.246 282.788,144.529 C 282.788,145.669 282.432,146.596 281.719,147.308 C 281.007,148.021 280.009,148.377 278.726,148.377 L 273.951,148.377 L 273.951,140.681 L 273.951,140.681 Z" marker-start="none" marker-end="none"/>
    <path d="M 299.679,139.968 L 291.198,139.968 L 291.198,133.055 L 301.033,133.055 L 301.033,130.917 L 288.632,130.917 L 288.632,150.444 L 300.89,150.444 L 300.89,148.306 L 291.198,148.306 L 291.198,142.035 L 299.679,142.035 L 299.679,139.968 Z" marker-start="none" marker-end="none"/>
    <path d="M 311.367,138.828 L 306.806,138.828 L 306.806,130.917 L 304.24,130.917 L 304.24,150.444 L 310.725,150.444 C 312.935,150.444 314.645,149.945 315.785,148.948 C 316.926,147.95 317.567,146.453 317.567,144.6 C 317.567,143.389 317.211,142.32 316.569,141.393 C 315.928,140.467 315.001,139.825 313.79,139.398 L 318.351,131.131 L 318.351,130.988 L 315.571,130.988 L 311.367,138.828 Z M 306.734,140.894 L 310.725,140.894 C 312.008,140.894 313.006,141.251 313.79,141.892 C 314.574,142.534 314.93,143.46 314.93,144.529 C 314.93,145.741 314.574,146.667 313.861,147.308 C 313.148,147.95 312.079,148.306 310.725,148.306 L 306.806,148.306 L 306.734,140.894 L 306.734,140.894 Z" marker-start="none" marker-end="none"/>
    <path d="M 326.903,139.612 C 324.694,140.253 323.055,141.037 322.057,141.963 C 321.059,142.89 320.56,144.03 320.56,145.384 C 320.56,146.952 321.202,148.164 322.413,149.233 C 323.625,150.23 325.264,150.729 327.188,150.729 C 328.542,150.729 329.754,150.444 330.751,149.945 C 331.82,149.446 332.604,148.734 333.174,147.807 C 333.745,146.881 334.03,145.883 334.03,144.814 L 331.464,144.814 C 331.464,146.026 331.108,146.952 330.324,147.594 C 329.54,148.306 328.542,148.591 327.117,148.591 C 325.834,148.591 324.836,148.306 324.124,147.736 C 323.411,147.166 323.055,146.382 323.055,145.384 C 323.055,144.6 323.411,143.888 324.052,143.389 C 324.694,142.819 325.905,142.32 327.473,141.892 C 329.112,141.465 330.395,140.966 331.25,140.396 C 332.105,139.825 332.818,139.184 333.317,138.471 C 333.745,137.759 333.958,136.903 333.958,135.906 C 333.958,134.338 333.317,133.055 332.105,132.128 C 330.894,131.202 329.255,130.703 327.117,130.703 C 325.763,130.703 324.551,130.988 323.34,131.487 C 322.199,131.986 321.273,132.699 320.631,133.625 C 319.99,134.552 319.705,135.549 319.705,136.69 L 322.271,136.69 C 322.271,135.478 322.698,134.552 323.553,133.91 C 324.409,133.198 325.62,132.912 327.045,132.912 C 328.4,132.912 329.469,133.198 330.181,133.768 C 330.894,134.338 331.25,135.05 331.25,136.048 C 331.25,137.046 330.894,137.759 330.253,138.258 C 329.896,138.614 328.685,139.113 326.903,139.612 Z" marker-start="none" marker-end="none"/>
    <path d="M 352.559,140.039 C 352.559,138.115 352.203,136.476 351.561,135.051 C 350.92,133.625 349.994,132.556 348.853,131.772 C 347.642,130.988 346.288,130.632 344.72,130.632 C 343.152,130.632 341.798,130.988 340.658,131.772 C 339.517,132.556 338.52,133.625 337.878,134.979 C 337.237,136.405 336.88,137.972 336.88,139.825 L 336.88,141.251 C 336.88,143.104 337.237,144.814 337.878,146.239 C 338.52,147.665 339.446,148.805 340.658,149.518 C 341.869,150.302 343.223,150.658 344.791,150.658 C 346.359,150.658 347.713,150.302 348.925,149.518 C 350.136,148.734 351.063,147.665 351.704,146.239 C 352.345,144.814 352.702,143.104 352.702,141.251 L 352.702,140.039 L 352.559,140.039 Z M 349.994,141.322 C 349.994,143.674 349.495,145.384 348.568,146.667 C 347.642,147.879 346.359,148.52 344.649,148.52 C 343.009,148.52 341.727,147.879 340.8,146.667 C 339.874,145.456 339.375,143.674 339.375,141.536 L 339.375,140.11 C 339.375,137.83 339.874,136.119 340.8,134.837 C 341.727,133.554 343.009,132.912 344.72,132.912 C 346.359,132.912 347.642,133.554 348.568,134.765 C 349.495,135.977 349.922,137.687 349.994,139.968 L 349.994,141.322 Z" marker-start="none" marker-end="none"/>
    <path d="M 371.445,130.917 L 368.879,130.917 L 359.045,145.954 L 359.045,130.917 L 356.479,130.917 L 356.479,150.444 L 359.045,150.444 L 368.879,135.336 L 368.879,150.444 L 371.445,150.444 L 371.445,130.917 Z" marker-start="none" marker-end="none"/>
    <path d="M 387.053,139.968 L 378.572,139.968 L 378.572,133.055 L 388.407,133.055 L 388.407,130.917 L 376.006,130.917 L 376.006,150.444 L 388.264,150.444 L 388.264,148.306 L 378.572,148.306 L 378.572,142.035 L 387.053,142.035 L 387.053,139.968 Z" marker-start="none" marker-end="none"/>
    <path d="M 406.58,130.917 L 404.014,130.917 L 394.179,145.954 L 394.179,130.917 L 391.614,130.917 L 391.614,150.444 L 394.179,150.444 L 404.014,135.336 L 404.014,150.444 L 406.58,150.444 L 406.58,130.917 Z" marker-start="none" marker-end="none"/>
   </g>
  </g>
 </g>
</svg>
