<?xml version="1.0" encoding="utf-8"?>
<!-- Generator: Adobe Illustrator 27.9.0, SVG Export Plug-In . SVG Version: 6.00 Build 0)  -->
<svg version="1.1" id="Ebene_1" xmlns="http://www.w3.org/2000/svg" xmlns:xlink="http://www.w3.org/1999/xlink" x="0px" y="0px"
	 viewBox="0 0 592.4 592.4" style="enable-background:new 0 0 592.4 592.4;" xml:space="preserve">
<style type="text/css">
	.st0{fill:#E30613;}
	.st1{fill:#FFFFFF;}
</style>
<circle class="st0" cx="298" cy="296.2" r="292"/>
<g>
	<path class="st1" d="M515.4,342.9c-1.8-6.3-4.6-12.2-8.3-17.6c-3.8-5.4-8.5-10-14.2-14c-5.7-4-12.4-6.9-20.2-8.9
		c12.8-5.2,22.6-12.8,29.2-22.8c6.6-10,10-21.3,10.1-33.9c0-12.6-2.3-23.5-6.9-32.7c-4.6-9.3-11.2-16.9-19.7-23
		c-8.5-6-18.8-10.5-30.8-13.5c-12-2.9-25.4-4.4-40.1-4.4h-90.5v269.4h98.2c14.8,0,28.1-1.7,40-5c11.8-3.3,21.9-8.3,30.2-15
		c8.3-6.7,14.6-14.9,19-24.8c4.4-9.9,6.7-21.3,6.7-34.2C518,355.8,517.1,349.3,515.4,342.9z M376.1,214.6h38.5
		c14.7,0.1,25.9,2.9,33.7,8.4c7.8,5.5,11.6,14.5,11.6,27.1c-0.1,11.5-4.1,20.2-11.8,26.1c-7.8,5.9-18.9,9-33.3,9.1h-38.7V214.6z
		 M454.8,389.2c-7.5,6.8-18.3,10.3-32.5,10.4h-46.3v-76.8h48.5c14.2,0.1,24.7,3.6,31.5,10.6c6.8,6.9,10.1,16.5,10,28.9
		C466,373.4,462.3,382.3,454.8,389.2z"/>
	<path class="st1" d="M288,342.9c-1.8-6.3-4.6-12.2-8.3-17.6c-3.8-5.4-8.5-10-14.2-14c-5.7-4-12.4-6.9-20.1-8.9
		c12.8-5.2,22.5-12.8,29.1-22.8c6.6-10,10-21.3,10.1-33.9c0-12.6-2.3-23.5-6.9-32.7c-4.6-9.3-11.2-16.9-19.7-23
		c-8.5-6-18.8-10.5-30.8-13.5c-12-2.9-25.4-4.4-40.1-4.4H116l-4.2-13.5l-11.9-38.1h-5.9h-0.2l16.1,51.6l0,0.1l23.5,75.3l23.5,75.3
		l0.1,0.2l23.9,76.5l13.1,42l0,0.1l16.2,51.7h6l-16.1-51.7l0-0.2c12.7-0.4,24.3-2,34.7-4.9c11.8-3.3,21.9-8.3,30.2-15
		c8.3-6.7,14.6-14.9,19-24.8c4.4-9.9,6.7-21.3,6.7-34.2C290.6,355.8,289.7,349.3,288,342.9z M151.3,285.3l-2.5-8.2v-62.5h38.5
		c14.7,0.1,25.9,2.9,33.7,8.4c7.8,5.5,11.6,14.5,11.6,27.1c-0.1,11.5-4.1,20.2-11.8,26.1c-7.8,5.9-18.9,9-33.3,9.1H151.3z
		 M227.4,389.2c-7.5,6.8-18.3,10.3-32.5,10.4h-8l-24-76.8h34.2c14.2,0.1,24.7,3.6,31.5,10.6c6.8,6.9,10.1,16.5,10,28.9
		C238.6,373.4,234.9,382.3,227.4,389.2z"/>
</g>
</svg>
