<?xml version="1.0" standalone="no"?>
<!DOCTYPE svg PUBLIC "-//W3C//DTD SVG 1.1//EN" "http://www.w3.org/Graphics/SVG/1.1/DTD/svg11.dtd">
<!--Generator: Xara Designer (www.xara.com), SVG filter version: 6.6.0.8-->
<svg fill="none" fill-rule="evenodd" stroke="black" stroke-width="0.501" stroke-linejoin="bevel" stroke-miterlimit="10" font-family="Times New Roman" font-size="16" style="font-variant-ligatures:none" xmlns:xlink="http://www.w3.org/1999/xlink" xmlns="http://www.w3.org/2000/svg" version="1.1" overflow="visible" width="799.84pt" height="607pt" viewBox="237.508 -2737.86 799.84 607">
 <defs>
	</defs>
 <g id="Layer 1" transform="scale(1 -1)">
  <g id="Group" fill-rule="nonzero" stroke-linejoin="miter" stroke="none" stroke-width="0.25" fill="#ffffff">
   <g id="Group_1">
    <path d="M 338.995,2651.67 C 330.95,2653.99 325.099,2656.83 321.438,2660.2 C 317.778,2663.57 315.947,2667.73 315.947,2672.68 C 315.947,2678.28 318.182,2682.91 322.653,2686.57 C 327.124,2690.23 332.939,2692.06 340.102,2692.06 C 344.99,2692.06 349.346,2691.11 353.165,2689.21 C 356.999,2687.33 359.965,2684.73 362.063,2681.4 C 364.161,2678.09 365.21,2674.46 365.21,2670.53 L 355.792,2670.53 C 355.792,2674.83 354.424,2678.2 351.689,2680.66 C 348.956,2683.12 345.092,2684.35 340.102,2684.35 C 335.486,2684.35 331.884,2683.33 329.293,2681.29 C 326.704,2679.25 325.41,2676.43 325.41,2672.83 C 325.41,2669.92 326.639,2667.47 329.099,2665.47 C 331.559,2663.48 335.739,2661.64 341.642,2659.98 C 347.559,2658.32 352.182,2656.48 355.508,2654.47 C 358.852,2652.47 361.325,2650.14 362.931,2647.46 C 364.552,2644.8 365.361,2641.67 365.361,2638.06 C 365.361,2632.29 363.111,2627.67 358.613,2624.2 C 354.128,2620.74 348.124,2619.01 340.6,2619.01 C 335.71,2619.01 331.146,2619.94 326.907,2621.81 C 322.682,2623.69 319.42,2626.26 317.12,2629.51 C 314.834,2632.77 313.691,2636.47 313.691,2640.6 L 323.109,2640.6 C 323.109,2636.31 324.693,2632.91 327.861,2630.4 C 331.045,2627.91 335.29,2626.67 340.6,2626.67 C 345.549,2626.67 349.339,2627.68 351.972,2629.69 C 354.604,2631.71 355.921,2634.47 355.921,2637.95 C 355.921,2641.44 354.699,2644.13 352.254,2646.03 C 349.824,2647.94 345.403,2649.82 338.995,2651.67 Z" marker-start="none" marker-end="none"/>
    <path d="M 435.55,2653.23 C 435.55,2646.27 434.378,2640.2 432.035,2635 C 429.69,2629.81 426.371,2625.85 422.074,2623.11 C 417.777,2620.38 412.764,2619.01 407.035,2619.01 C 401.436,2619.01 396.474,2620.38 392.148,2623.13 C 387.821,2625.88 384.459,2629.8 382.056,2634.89 C 379.67,2640 378.446,2645.91 378.389,2652.6 L 378.389,2657.72 C 378.389,2664.57 379.575,2670.61 381.948,2675.85 C 384.321,2681.08 387.677,2685.09 392.017,2687.87 C 396.372,2690.66 401.349,2692.06 406.947,2692.06 C 412.647,2692.06 417.668,2690.68 422.009,2687.93 C 426.349,2685.18 429.69,2681.2 432.035,2675.98 C 434.378,2670.75 435.55,2664.67 435.55,2657.72 L 435.55,2653.23 Z M 426.24,2657.83 C 426.24,2666.27 424.547,2672.74 421.163,2677.23 C 417.777,2681.75 413.039,2684.01 406.947,2684.01 C 401.016,2684.01 396.35,2681.75 392.95,2677.23 C 389.55,2672.74 387.8,2666.48 387.699,2658.46 L 387.699,2653.23 C 387.699,2645.07 389.413,2638.66 392.842,2633.98 C 396.285,2629.31 401.016,2626.97 407.035,2626.97 C 413.096,2626.97 417.784,2629.18 421.097,2633.59 C 424.425,2638.01 426.139,2644.33 426.24,2652.56 L 426.24,2657.83 Z" marker-start="none" marker-end="none"/>
    <path d="M 462.553,2627.65 L 496.234,2627.65 L 496.234,2619.99 L 453.113,2619.99 L 453.113,2691.08 L 462.553,2691.08 L 462.553,2627.65 Z" marker-start="none" marker-end="none"/>
    <path d="M 561.919,2653.23 C 561.919,2646.27 560.747,2640.2 558.404,2635 C 556.059,2629.81 552.74,2625.85 548.443,2623.11 C 544.146,2620.38 539.133,2619.01 533.404,2619.01 C 527.805,2619.01 522.843,2620.38 518.517,2623.13 C 514.19,2625.88 510.828,2629.8 508.425,2634.89 C 506.039,2640 504.815,2645.91 504.758,2652.6 L 504.758,2657.72 C 504.758,2664.57 505.944,2670.61 508.317,2675.85 C 510.69,2681.08 514.046,2685.09 518.386,2687.87 C 522.741,2690.66 527.718,2692.06 533.316,2692.06 C 539.016,2692.06 544.037,2690.68 548.378,2687.93 C 552.718,2685.18 556.059,2681.2 558.404,2675.98 C 560.747,2670.75 561.919,2664.67 561.919,2657.72 L 561.919,2653.23 Z M 552.609,2657.83 C 552.609,2666.27 550.916,2672.74 547.532,2677.23 C 544.146,2681.75 539.408,2684.01 533.316,2684.01 C 527.385,2684.01 522.719,2681.75 519.319,2677.23 C 515.919,2672.74 514.169,2666.48 514.068,2658.46 L 514.068,2653.23 C 514.068,2645.07 515.782,2638.66 519.211,2633.98 C 522.654,2629.31 527.385,2626.97 533.404,2626.97 C 539.465,2626.97 544.153,2629.18 547.466,2633.59 C 550.794,2638.01 552.508,2644.33 552.609,2652.56 L 552.609,2657.83 Z" marker-start="none" marker-end="none"/>
    <path d="M 627.314,2683.38 L 604.462,2683.38 L 604.462,2619.99 L 595.13,2619.99 L 595.13,2683.38 L 572.322,2683.38 L 572.322,2691.08 L 627.314,2691.08 L 627.314,2683.38 Z" marker-start="none" marker-end="none"/>
    <path d="M 696.105,2619.99 L 686.687,2619.99 L 686.687,2652.84 L 650.836,2652.84 L 650.836,2619.99 L 641.461,2619.99 L 641.461,2691.08 L 650.836,2691.08 L 650.836,2660.52 L 686.687,2660.52 L 686.687,2691.08 L 696.105,2691.08 L 696.105,2619.99 Z" marker-start="none" marker-end="none"/>
    <path d="M 766.315,2691.08 L 766.315,2642.75 C 766.272,2636.04 764.159,2630.55 759.977,2626.28 C 755.797,2622.01 750.126,2619.62 742.964,2619.1 L 740.469,2619.01 C 732.7,2619.01 726.5,2621.11 721.871,2625.3 C 717.255,2629.51 714.911,2635.29 714.839,2642.64 L 714.839,2691.08 L 724.128,2691.08 L 724.128,2642.95 C 724.128,2637.8 725.539,2633.8 728.36,2630.95 C 731.194,2628.1 735.232,2626.67 740.469,2626.67 C 745.778,2626.67 749.836,2628.09 752.643,2630.92 C 755.464,2633.76 756.875,2637.74 756.875,2642.88 L 756.875,2691.08 L 766.315,2691.08 Z" marker-start="none" marker-end="none"/>
    <path d="M 810.678,2648.74 L 793.969,2648.74 L 793.969,2619.99 L 784.551,2619.99 L 784.551,2691.08 L 808.097,2691.08 C 816.097,2691.08 822.253,2689.26 826.565,2685.61 C 830.876,2681.97 833.031,2676.66 833.031,2669.7 C 833.031,2665.28 831.838,2661.41 829.451,2658.12 C 827.063,2654.83 823.735,2652.38 819.467,2650.76 L 836.156,2620.57 L 836.156,2619.99 L 826.109,2619.99 L 810.678,2648.74 Z M 793.969,2656.42 L 808.378,2656.42 C 813.037,2656.42 816.741,2657.62 819.49,2660.03 C 822.238,2662.44 823.613,2665.67 823.613,2669.7 C 823.613,2674.09 822.303,2677.45 819.685,2679.8 C 817.066,2682.14 813.283,2683.33 808.335,2683.38 L 793.969,2683.38 L 793.969,2656.42 Z" marker-start="none" marker-end="none"/>
    <path d="M 904.305,2619.99 L 894.887,2619.99 L 859.101,2674.78 L 859.101,2619.99 L 849.661,2619.99 L 849.661,2691.08 L 859.101,2691.08 L 894.973,2636.05 L 894.973,2691.08 L 904.305,2691.08 L 904.305,2619.99 Z" marker-start="none" marker-end="none"/>
    <path d="M 964.641,2652.84 L 933.825,2652.84 L 933.825,2627.65 L 969.632,2627.65 L 969.632,2619.99 L 924.45,2619.99 L 924.45,2691.08 L 969.133,2691.08 L 969.133,2683.38 L 933.825,2683.38 L 933.825,2660.52 L 964.641,2660.52 L 964.641,2652.84 Z" marker-start="none" marker-end="none"/>
    <path d="M 1011.87,2648.74 L 995.161,2648.74 L 995.161,2619.99 L 985.743,2619.99 L 985.743,2691.08 L 1009.29,2691.08 C 1017.29,2691.08 1023.45,2689.26 1027.76,2685.61 C 1032.07,2681.97 1034.22,2676.66 1034.22,2669.7 C 1034.22,2665.28 1033.03,2661.41 1030.64,2658.12 C 1028.26,2654.83 1024.93,2652.38 1020.66,2650.76 L 1037.35,2620.57 L 1037.35,2619.99 L 1027.3,2619.99 L 1011.87,2648.74 Z M 995.161,2656.42 L 1009.57,2656.42 C 1014.23,2656.42 1017.93,2657.62 1020.68,2660.03 C 1023.43,2662.44 1024.81,2665.67 1024.81,2669.7 C 1024.81,2674.09 1023.5,2677.45 1020.88,2679.8 C 1018.26,2682.14 1014.48,2683.33 1009.53,2683.38 L 995.161,2683.38 L 995.161,2656.42 Z" marker-start="none" marker-end="none"/>
   </g>
   <g id="Group_2">
    <path d="M 369.016,2525.04 L 389.328,2583.68 L 399.571,2583.68 L 373.204,2512.59 L 364.914,2512.59 L 338.591,2583.68 L 348.791,2583.68 L 369.016,2525.04 Z" marker-start="none" marker-end="none"/>
    <path d="M 451.79,2545.44 L 420.974,2545.44 L 420.974,2520.25 L 456.781,2520.25 L 456.781,2512.59 L 411.599,2512.59 L 411.599,2583.68 L 456.282,2583.68 L 456.282,2575.98 L 420.974,2575.98 L 420.974,2553.12 L 451.79,2553.12 L 451.79,2545.44 Z" marker-start="none" marker-end="none"/>
    <path d="M 497.719,2541.34 L 481.01,2541.34 L 481.01,2512.59 L 471.592,2512.59 L 471.592,2583.68 L 495.138,2583.68 C 503.138,2583.68 509.294,2581.86 513.606,2578.21 C 517.917,2574.57 520.072,2569.26 520.072,2562.3 C 520.072,2557.88 518.879,2554.01 516.492,2550.72 C 514.104,2547.43 510.776,2544.98 506.508,2543.36 L 523.197,2513.17 L 523.197,2512.59 L 513.15,2512.59 L 497.719,2541.34 Z M 481.01,2549.02 L 495.419,2549.02 C 500.078,2549.02 503.782,2550.22 506.531,2552.63 C 509.279,2555.04 510.654,2558.27 510.654,2562.3 C 510.654,2566.69 509.344,2570.05 506.726,2572.39 C 504.107,2574.74 500.324,2575.93 495.376,2575.98 L 481.01,2575.98 L 481.01,2549.02 Z" marker-start="none" marker-end="none"/>
    <path d="M 535.702,2512.59 L 535.702,2583.68 L 558.943,2583.68 C 566.67,2583.68 572.471,2582.08 576.349,2578.88 C 580.241,2575.7 582.186,2570.98 582.186,2564.73 C 582.186,2561.42 581.238,2558.48 579.343,2555.92 C 577.463,2553.36 574.895,2551.39 571.639,2550 C 575.488,2548.91 578.525,2546.87 580.754,2543.86 C 582.982,2540.85 584.096,2537.26 584.096,2533.09 C 584.096,2526.71 582.027,2521.7 577.889,2518.05 C 573.766,2514.41 567.928,2512.59 560.377,2512.59 L 535.702,2512.59 Z M 545.077,2545.83 L 545.077,2520.25 L 560.571,2520.25 C 564.927,2520.25 568.363,2521.38 570.88,2523.63 C 573.411,2525.9 574.678,2529.03 574.678,2533.01 C 574.678,2541.56 570.018,2545.83 560.702,2545.83 L 545.077,2545.83 Z M 545.077,2553.36 L 559.248,2553.36 C 563.342,2553.36 566.618,2554.38 569.078,2556.42 C 571.538,2558.48 572.768,2561.26 572.768,2564.78 C 572.768,2568.68 571.625,2571.53 569.339,2573.31 C 567.067,2575.09 563.603,2575.98 558.943,2575.98 L 545.077,2575.98 L 545.077,2553.36 Z" marker-start="none" marker-end="none"/>
    <path d="M 639.821,2531.14 L 610.046,2531.14 L 603.363,2512.59 L 593.684,2512.59 L 620.832,2583.68 L 629.035,2583.68 L 656.227,2512.59 L 646.613,2512.59 L 639.821,2531.14 Z M 612.867,2538.87 L 637.043,2538.87 L 624.934,2572.11 L 612.867,2538.87 Z" marker-start="none" marker-end="none"/>
    <path d="M 722.842,2512.59 L 713.424,2512.59 L 677.638,2567.38 L 677.638,2512.59 L 668.198,2512.59 L 668.198,2583.68 L 677.638,2583.68 L 713.51,2528.64 L 713.51,2583.68 L 722.842,2583.68 L 722.842,2512.59 Z" marker-start="none" marker-end="none"/>
    <path d="M 741.987,2512.59 L 741.987,2583.68 L 762.06,2583.68 C 768.252,2583.68 773.721,2582.31 778.467,2579.58 C 783.227,2576.84 786.894,2572.95 789.47,2567.9 C 792.059,2562.87 793.376,2557.07 793.419,2550.52 L 793.419,2545.98 C 793.419,2539.29 792.124,2533.41 789.534,2528.36 C 786.945,2523.31 783.248,2519.44 778.445,2516.73 C 773.642,2514.04 768.051,2512.66 761.67,2512.59 L 741.987,2512.59 Z M 751.362,2575.98 L 751.362,2520.25 L 761.235,2520.25 C 768.455,2520.25 774.076,2522.49 778.098,2526.97 C 782.12,2531.47 784.131,2537.88 784.131,2546.18 L 784.131,2550.32 C 784.131,2558.4 782.235,2564.67 778.445,2569.14 C 774.655,2573.62 769.273,2575.9 762.299,2575.98 L 751.362,2575.98 Z" marker-start="none" marker-end="none"/>
    <path d="M 872.344,2543.99 L 842.505,2543.99 L 842.505,2512.59 L 833.13,2512.59 L 833.13,2583.68 L 877.184,2583.68 L 877.184,2575.98 L 842.505,2575.98 L 842.505,2551.65 L 872.344,2551.65 L 872.344,2543.99 Z" marker-start="none" marker-end="none"/>
    <path d="M 941.069,2583.68 L 941.069,2535.35 C 941.026,2528.64 938.913,2523.15 934.731,2518.88 C 930.551,2514.61 924.88,2512.22 917.718,2511.7 L 915.223,2511.61 C 907.454,2511.61 901.254,2513.71 896.625,2517.9 C 892.009,2522.11 889.665,2527.89 889.593,2535.24 L 889.593,2583.68 L 898.882,2583.68 L 898.882,2535.55 C 898.882,2530.39 900.293,2526.39 903.114,2523.55 C 905.948,2520.7 909.986,2519.27 915.223,2519.27 C 920.532,2519.27 924.59,2520.69 927.397,2523.52 C 930.218,2526.36 931.629,2530.35 931.629,2535.48 L 931.629,2583.68 L 941.069,2583.68 Z M 899.598,2594.68 C 899.598,2596.14 900.045,2597.37 900.943,2598.35 C 901.84,2599.35 903.164,2599.85 904.915,2599.85 C 906.679,2599.85 908.018,2599.35 908.929,2598.35 C 909.841,2597.37 910.297,2596.14 910.297,2594.68 C 910.297,2593.22 909.841,2592 908.929,2591.01 C 908.018,2590.05 906.679,2589.56 904.915,2589.56 C 903.164,2589.56 901.84,2590.05 900.943,2591.01 C 900.045,2592 899.598,2593.22 899.598,2594.68 Z M 920.605,2594.57 C 920.605,2596.05 921.052,2597.29 921.95,2598.28 C 922.847,2599.3 924.17,2599.8 925.922,2599.8 C 927.686,2599.8 929.025,2599.3 929.936,2598.28 C 930.848,2597.29 931.304,2596.05 931.304,2594.57 C 931.304,2593.11 930.848,2591.89 929.936,2590.91 C 929.025,2589.94 927.686,2589.45 925.922,2589.45 C 924.17,2589.45 922.847,2589.94 921.95,2590.91 C 921.052,2591.89 920.605,2593.11 920.605,2594.57 Z" marker-start="none" marker-end="none"/>
    <path d="M 984.432,2541.34 L 967.723,2541.34 L 967.723,2512.59 L 958.305,2512.59 L 958.305,2583.68 L 981.851,2583.68 C 989.851,2583.68 996.007,2581.86 1000.32,2578.21 C 1004.63,2574.57 1006.78,2569.26 1006.78,2562.3 C 1006.78,2557.88 1005.59,2554.01 1003.21,2550.72 C 1000.82,2547.43 997.489,2544.98 993.221,2543.36 L 1009.91,2513.17 L 1009.91,2512.59 L 999.863,2512.59 L 984.432,2541.34 Z M 967.723,2549.02 L 982.132,2549.02 C 986.791,2549.02 990.495,2550.22 993.244,2552.63 C 995.992,2555.04 997.367,2558.27 997.367,2562.3 C 997.367,2566.69 996.057,2570.05 993.439,2572.39 C 990.82,2574.74 987.037,2575.93 982.089,2575.98 L 967.723,2575.98 L 967.723,2549.02 Z" marker-start="none" marker-end="none"/>
   </g>
   <g id="Group_3">
    <path d="M 388.739,2405.19 L 388.739,2476.28 L 411.98,2476.28 C 419.707,2476.28 425.508,2474.68 429.386,2471.48 C 433.278,2468.3 435.223,2463.58 435.223,2457.33 C 435.223,2454.02 434.275,2451.08 432.38,2448.52 C 430.5,2445.96 427.932,2443.99 424.676,2442.6 C 428.525,2441.51 431.562,2439.47 433.791,2436.46 C 436.019,2433.45 437.133,2429.86 437.133,2425.69 C 437.133,2419.31 435.064,2414.3 430.926,2410.66 C 426.803,2407.01 420.965,2405.19 413.414,2405.19 L 388.739,2405.19 Z M 398.114,2438.43 L 398.114,2412.85 L 413.608,2412.85 C 417.964,2412.85 421.4,2413.98 423.917,2416.23 C 426.448,2418.5 427.715,2421.63 427.715,2425.61 C 427.715,2434.16 423.055,2438.43 413.739,2438.43 L 398.114,2438.43 Z M 398.114,2445.96 L 412.285,2445.96 C 416.379,2445.96 419.655,2446.98 422.115,2449.02 C 424.575,2451.08 425.805,2453.86 425.805,2457.38 C 425.805,2461.28 424.662,2464.13 422.376,2465.91 C 420.104,2467.69 416.64,2468.58 411.98,2468.58 L 398.114,2468.58 L 398.114,2445.96 Z" marker-start="none" marker-end="none"/>
    <path d="M 495.691,2438.04 L 464.875,2438.04 L 464.875,2412.85 L 500.682,2412.85 L 500.682,2405.19 L 455.5,2405.19 L 455.5,2476.28 L 500.183,2476.28 L 500.183,2468.58 L 464.875,2468.58 L 464.875,2445.72 L 495.691,2445.72 L 495.691,2438.04 Z" marker-start="none" marker-end="none"/>
    <path d="M 542.92,2433.94 L 526.211,2433.94 L 526.211,2405.19 L 516.793,2405.19 L 516.793,2476.28 L 540.339,2476.28 C 548.339,2476.28 554.495,2474.46 558.807,2470.81 C 563.118,2467.17 565.273,2461.86 565.273,2454.9 C 565.273,2450.48 564.08,2446.62 561.693,2443.32 C 559.305,2440.03 555.977,2437.58 551.709,2435.96 L 568.398,2405.77 L 568.398,2405.19 L 558.351,2405.19 L 542.92,2433.94 Z M 526.211,2441.62 L 540.62,2441.62 C 545.279,2441.62 548.983,2442.82 551.732,2445.23 C 554.48,2447.64 555.855,2450.87 555.855,2454.9 C 555.855,2459.29 554.545,2462.65 551.927,2464.99 C 549.308,2467.34 545.525,2468.53 540.577,2468.58 L 526.211,2468.58 L 526.211,2441.62 Z" marker-start="none" marker-end="none"/>
    <path d="M 632.968,2476.28 L 632.968,2427.95 C 632.925,2421.24 630.812,2415.75 626.63,2411.48 C 622.45,2407.21 616.779,2404.82 609.617,2404.3 L 607.122,2404.21 C 599.353,2404.21 593.153,2406.31 588.524,2410.5 C 583.908,2414.71 581.564,2420.49 581.492,2427.84 L 581.492,2476.28 L 590.781,2476.28 L 590.781,2428.15 C 590.781,2422.99 592.192,2418.99 595.013,2416.14 C 597.847,2413.3 601.885,2411.87 607.122,2411.87 C 612.431,2411.87 616.489,2413.29 619.296,2416.12 C 622.117,2418.96 623.528,2422.95 623.528,2428.08 L 623.528,2476.28 L 632.968,2476.28 Z" marker-start="none" marker-end="none"/>
    <path d="M 691.561,2436.59 L 661.722,2436.59 L 661.722,2405.19 L 652.347,2405.19 L 652.347,2476.28 L 696.401,2476.28 L 696.401,2468.58 L 661.722,2468.58 L 661.722,2444.25 L 691.561,2444.25 L 691.561,2436.59 Z" marker-start="none" marker-end="none"/>
    <path d="M 733.085,2436.87 C 725.04,2439.19 719.189,2442.03 715.528,2445.4 C 711.868,2448.77 710.037,2452.93 710.037,2457.88 C 710.037,2463.48 712.272,2468.11 716.743,2471.77 C 721.214,2475.43 727.029,2477.26 734.192,2477.26 C 739.08,2477.26 743.436,2476.31 747.255,2474.41 C 751.089,2472.53 754.055,2469.93 756.153,2466.6 C 758.251,2463.29 759.3,2459.66 759.3,2455.73 L 749.882,2455.73 C 749.882,2460.03 748.514,2463.4 745.779,2465.86 C 743.046,2468.32 739.182,2469.55 734.192,2469.55 C 729.576,2469.55 725.974,2468.53 723.383,2466.49 C 720.794,2464.45 719.5,2461.63 719.5,2458.03 C 719.5,2455.12 720.729,2452.67 723.189,2450.67 C 725.649,2448.68 729.829,2446.85 735.732,2445.18 C 741.649,2443.52 746.272,2441.68 749.598,2439.67 C 752.942,2437.67 755.415,2435.34 757.021,2432.66 C 758.642,2430 759.451,2426.87 759.451,2423.26 C 759.451,2417.49 757.201,2412.87 752.703,2409.4 C 748.218,2405.94 742.214,2404.21 734.69,2404.21 C 729.8,2404.21 725.236,2405.14 720.997,2407.01 C 716.772,2408.89 713.51,2411.46 711.21,2414.71 C 708.924,2417.97 707.781,2421.66 707.781,2425.8 L 717.199,2425.8 C 717.199,2421.51 718.783,2418.11 721.951,2415.6 C 725.135,2413.12 729.38,2411.87 734.69,2411.87 C 739.639,2411.87 743.429,2412.88 746.062,2414.89 C 748.694,2416.91 750.011,2419.67 750.011,2423.16 C 750.011,2426.64 748.789,2429.33 746.344,2431.23 C 743.914,2433.14 739.493,2435.02 733.085,2436.87 Z" marker-start="none" marker-end="none"/>
    <path d="M 791.536,2431.7 L 767.707,2431.7 L 767.707,2439.08 L 791.536,2439.08 L 791.536,2431.7 Z" marker-start="none" marker-end="none"/>
   </g>
   <g id="Group_4">
    <path d="M 417.929,2297.79 L 417.929,2368.88 L 441.17,2368.88 C 448.897,2368.88 454.698,2367.28 458.576,2364.08 C 462.468,2360.9 464.413,2356.18 464.413,2349.93 C 464.413,2346.62 463.465,2343.68 461.57,2341.12 C 459.69,2338.56 457.122,2336.59 453.866,2335.2 C 457.715,2334.12 460.752,2332.07 462.981,2329.06 C 465.209,2326.05 466.323,2322.46 466.323,2318.29 C 466.323,2311.91 464.254,2306.9 460.116,2303.26 C 455.993,2299.61 450.155,2297.79 442.604,2297.79 L 417.929,2297.79 Z M 427.304,2331.03 L 427.304,2305.45 L 442.798,2305.45 C 447.154,2305.45 450.59,2306.58 453.107,2308.83 C 455.638,2311.1 456.905,2314.23 456.905,2318.21 C 456.905,2326.76 452.245,2331.03 442.929,2331.03 L 427.304,2331.03 Z M 427.304,2338.56 L 441.475,2338.56 C 445.569,2338.56 448.845,2339.58 451.305,2341.62 C 453.765,2343.68 454.995,2346.46 454.995,2349.98 C 454.995,2353.88 453.852,2356.73 451.566,2358.51 C 449.294,2360.29 445.83,2361.18 441.17,2361.18 L 427.304,2361.18 L 427.304,2338.56 Z" marker-start="none" marker-end="none"/>
    <path d="M 525.881,2330.64 L 495.065,2330.64 L 495.065,2305.45 L 530.872,2305.45 L 530.872,2297.79 L 485.69,2297.79 L 485.69,2368.88 L 530.373,2368.88 L 530.373,2361.18 L 495.065,2361.18 L 495.065,2338.32 L 525.881,2338.32 L 525.881,2330.64 Z" marker-start="none" marker-end="none"/>
    <path d="M 558.095,2297.79 L 548.72,2297.79 L 548.72,2368.88 L 558.095,2368.88 L 558.095,2297.79 Z" marker-start="none" marker-end="none"/>
    <path d="M 601.682,2329.47 C 593.637,2331.79 587.786,2334.63 584.125,2338 C 580.465,2341.37 578.634,2345.53 578.634,2350.48 C 578.634,2356.08 580.869,2360.71 585.34,2364.37 C 589.811,2368.03 595.626,2369.86 602.789,2369.86 C 607.677,2369.86 612.033,2368.91 615.852,2367.01 C 619.686,2365.13 622.652,2362.53 624.75,2359.2 C 626.848,2355.89 627.897,2352.26 627.897,2348.33 L 618.479,2348.33 C 618.479,2352.63 617.111,2356 614.376,2358.46 C 611.643,2360.92 607.779,2362.15 602.789,2362.15 C 598.173,2362.15 594.571,2361.13 591.98,2359.09 C 589.391,2357.05 588.097,2354.23 588.097,2350.63 C 588.097,2347.72 589.326,2345.27 591.786,2343.27 C 594.246,2341.28 598.426,2339.45 604.329,2337.78 C 610.246,2336.12 614.869,2334.28 618.195,2332.27 C 621.539,2330.27 624.012,2327.94 625.618,2325.26 C 627.239,2322.6 628.048,2319.47 628.048,2315.86 C 628.048,2310.09 625.798,2305.47 621.3,2302 C 616.815,2298.54 610.811,2296.81 603.287,2296.81 C 598.397,2296.81 593.833,2297.74 589.594,2299.61 C 585.369,2301.49 582.107,2304.06 579.807,2307.31 C 577.521,2310.57 576.378,2314.26 576.378,2318.4 L 585.796,2318.4 C 585.796,2314.11 587.38,2310.71 590.548,2308.2 C 593.732,2305.72 597.977,2304.47 603.287,2304.47 C 608.236,2304.47 612.026,2305.48 614.659,2307.49 C 617.291,2309.51 618.608,2312.27 618.608,2315.76 C 618.608,2319.24 617.386,2321.93 614.941,2323.83 C 612.511,2325.74 608.09,2327.62 601.682,2329.47 Z" marker-start="none" marker-end="none"/>
    <path d="M 694.682,2361.18 L 671.83,2361.18 L 671.83,2297.79 L 662.498,2297.79 L 662.498,2361.18 L 639.69,2361.18 L 639.69,2368.88 L 694.682,2368.88 L 694.682,2361.18 Z" marker-start="none" marker-end="none"/>
    <path d="M 746.087,2316.34 L 716.312,2316.34 L 709.629,2297.79 L 699.95,2297.79 L 727.098,2368.88 L 735.301,2368.88 L 762.493,2297.79 L 752.879,2297.79 L 746.087,2316.34 Z M 719.133,2324.07 L 743.309,2324.07 L 731.2,2357.31 L 719.133,2324.07 Z" marker-start="none" marker-end="none"/>
    <path d="M 832.208,2297.79 L 822.79,2297.79 L 787.004,2352.58 L 787.004,2297.79 L 777.564,2297.79 L 777.564,2368.88 L 787.004,2368.88 L 822.876,2313.85 L 822.876,2368.88 L 832.208,2368.88 L 832.208,2297.79 Z" marker-start="none" marker-end="none"/>
    <path d="M 854.353,2297.79 L 854.353,2368.88 L 874.426,2368.88 C 880.618,2368.88 886.087,2367.51 890.833,2364.78 C 895.593,2362.04 899.26,2358.15 901.836,2353.1 C 904.425,2348.07 905.742,2342.27 905.785,2335.72 L 905.785,2331.18 C 905.785,2324.49 904.49,2318.61 901.9,2313.56 C 899.311,2308.51 895.614,2304.64 890.811,2301.93 C 886.008,2299.24 880.417,2297.86 874.036,2297.79 L 854.353,2297.79 Z M 863.728,2361.18 L 863.728,2305.45 L 873.601,2305.45 C 880.821,2305.45 886.442,2307.69 890.464,2312.17 C 894.486,2316.67 896.497,2323.08 896.497,2331.38 L 896.497,2335.52 C 896.497,2343.6 894.601,2349.87 890.811,2354.34 C 887.021,2358.82 881.639,2361.1 874.665,2361.18 L 863.728,2361.18 Z" marker-start="none" marker-end="none"/>
    <path d="M 946.399,2329.47 C 938.354,2331.79 932.503,2334.63 928.842,2338 C 925.182,2341.37 923.351,2345.53 923.351,2350.48 C 923.351,2356.08 925.586,2360.71 930.057,2364.37 C 934.528,2368.03 940.343,2369.86 947.506,2369.86 C 952.394,2369.86 956.75,2368.91 960.569,2367.01 C 964.403,2365.13 967.369,2362.53 969.467,2359.2 C 971.565,2355.89 972.614,2352.26 972.614,2348.33 L 963.196,2348.33 C 963.196,2352.63 961.828,2356 959.093,2358.46 C 956.36,2360.92 952.496,2362.15 947.506,2362.15 C 942.89,2362.15 939.288,2361.13 936.697,2359.09 C 934.108,2357.05 932.814,2354.23 932.814,2350.63 C 932.814,2347.72 934.043,2345.27 936.503,2343.27 C 938.963,2341.28 943.143,2339.45 949.046,2337.78 C 954.963,2336.12 959.586,2334.28 962.912,2332.27 C 966.256,2330.27 968.729,2327.94 970.335,2325.26 C 971.956,2322.6 972.765,2319.47 972.765,2315.86 C 972.765,2310.09 970.515,2305.47 966.017,2302 C 961.532,2298.54 955.528,2296.81 948.004,2296.81 C 943.114,2296.81 938.55,2297.74 934.311,2299.61 C 930.086,2301.49 926.824,2304.06 924.524,2307.31 C 922.238,2310.57 921.095,2314.26 921.095,2318.4 L 930.513,2318.4 C 930.513,2314.11 932.097,2310.71 935.265,2308.2 C 938.449,2305.72 942.694,2304.47 948.004,2304.47 C 952.953,2304.47 956.743,2305.48 959.376,2307.49 C 962.008,2309.51 963.325,2312.27 963.325,2315.76 C 963.325,2319.24 962.103,2321.93 959.658,2323.83 C 957.228,2325.74 952.807,2327.62 946.399,2329.47 Z" marker-start="none" marker-end="none"/>
    <path d="M 1005.95,2324.3 L 982.121,2324.3 L 982.121,2331.68 L 1005.95,2331.68 L 1005.95,2324.3 Z" marker-start="none" marker-end="none"/>
   </g>
   <g id="Group_5">
    <path d="M 465.014,2218.23 L 465.014,2190.39 L 455.639,2190.39 L 455.639,2261.48 L 481.876,2261.48 C 489.644,2261.48 495.736,2259.49 500.148,2255.51 C 504.561,2251.55 506.768,2246.3 506.768,2239.76 C 506.768,2232.86 504.611,2227.54 500.3,2223.81 C 495.989,2220.09 489.811,2218.23 481.768,2218.23 L 465.014,2218.23 Z M 465.014,2225.89 L 481.876,2225.89 C 486.882,2225.89 490.715,2227.07 493.378,2229.43 C 496.054,2231.79 497.393,2235.19 497.393,2239.65 C 497.393,2243.89 496.054,2247.27 493.378,2249.8 C 490.715,2252.35 487.055,2253.67 482.397,2253.78 L 465.014,2253.78 L 465.014,2225.89 Z" marker-start="none" marker-end="none"/>
    <path d="M 562.416,2223.24 L 531.6,2223.24 L 531.6,2198.05 L 567.407,2198.05 L 567.407,2190.39 L 522.225,2190.39 L 522.225,2261.48 L 566.908,2261.48 L 566.908,2253.78 L 531.6,2253.78 L 531.6,2230.92 L 562.416,2230.92 L 562.416,2223.24 Z" marker-start="none" marker-end="none"/>
    <path d="M 608.745,2219.14 L 592.036,2219.14 L 592.036,2190.39 L 582.618,2190.39 L 582.618,2261.48 L 606.164,2261.48 C 614.164,2261.48 620.32,2259.66 624.632,2256.01 C 628.943,2252.37 631.098,2247.06 631.098,2240.1 C 631.098,2235.68 629.905,2231.82 627.518,2228.52 C 625.13,2225.23 621.802,2222.78 617.534,2221.16 L 634.223,2190.97 L 634.223,2190.39 L 624.176,2190.39 L 608.745,2219.14 Z M 592.036,2226.82 L 606.445,2226.82 C 611.104,2226.82 614.808,2228.02 617.557,2230.43 C 620.305,2232.84 621.68,2236.07 621.68,2240.1 C 621.68,2244.49 620.37,2247.85 617.752,2250.2 C 615.133,2252.54 611.35,2253.73 606.402,2253.78 L 592.036,2253.78 L 592.036,2226.82 Z" marker-start="none" marker-end="none"/>
    <path d="M 668.692,2222.07 C 660.647,2224.39 654.796,2227.23 651.135,2230.6 C 647.475,2233.97 645.644,2238.13 645.644,2243.08 C 645.644,2248.68 647.879,2253.31 652.35,2256.97 C 656.821,2260.63 662.636,2262.46 669.799,2262.46 C 674.687,2262.46 679.043,2261.51 682.862,2259.61 C 686.696,2257.73 689.662,2255.13 691.76,2251.8 C 693.858,2248.49 694.907,2244.86 694.907,2240.93 L 685.489,2240.93 C 685.489,2245.23 684.121,2248.6 681.386,2251.06 C 678.653,2253.52 674.789,2254.75 669.799,2254.75 C 665.183,2254.75 661.581,2253.73 658.99,2251.69 C 656.401,2249.65 655.107,2246.83 655.107,2243.23 C 655.107,2240.32 656.336,2237.87 658.796,2235.87 C 661.256,2233.88 665.436,2232.05 671.339,2230.38 C 677.256,2228.72 681.879,2226.88 685.205,2224.87 C 688.549,2222.87 691.022,2220.54 692.628,2217.86 C 694.249,2215.2 695.058,2212.07 695.058,2208.46 C 695.058,2202.69 692.808,2198.07 688.31,2194.6 C 683.825,2191.14 677.821,2189.41 670.297,2189.41 C 665.407,2189.41 660.843,2190.34 656.604,2192.21 C 652.379,2194.09 649.117,2196.66 646.817,2199.91 C 644.531,2203.17 643.388,2206.87 643.388,2211 L 652.806,2211 C 652.806,2206.71 654.39,2203.31 657.558,2200.8 C 660.742,2198.32 664.987,2197.07 670.297,2197.07 C 675.246,2197.07 679.036,2198.08 681.669,2200.09 C 684.301,2202.11 685.618,2204.87 685.618,2208.36 C 685.618,2211.84 684.396,2214.53 681.951,2216.43 C 679.521,2218.34 675.1,2220.22 668.692,2222.07 Z" marker-start="none" marker-end="none"/>
    <path d="M 765.247,2223.63 C 765.247,2216.67 764.075,2210.6 761.732,2205.4 C 759.387,2200.21 756.068,2196.24 751.771,2193.51 C 747.474,2190.78 742.461,2189.41 736.732,2189.41 C 731.133,2189.41 726.171,2190.78 721.845,2193.53 C 717.518,2196.28 714.156,2200.2 711.753,2205.3 C 709.367,2210.4 708.143,2216.3 708.086,2223 L 708.086,2228.12 C 708.086,2234.97 709.272,2241.01 711.645,2246.24 C 714.018,2251.48 717.374,2255.49 721.714,2258.27 C 726.069,2261.06 731.046,2262.46 736.644,2262.46 C 742.344,2262.46 747.365,2261.08 751.706,2258.33 C 756.046,2255.58 759.387,2251.6 761.732,2246.38 C 764.075,2241.15 765.247,2235.07 765.247,2228.12 L 765.247,2223.63 Z M 755.937,2228.23 C 755.937,2236.67 754.244,2243.14 750.86,2247.63 C 747.474,2252.15 742.736,2254.41 736.644,2254.41 C 730.713,2254.41 726.047,2252.15 722.647,2247.63 C 719.247,2243.14 717.497,2236.88 717.396,2228.86 L 717.396,2223.63 C 717.396,2215.47 719.11,2209.06 722.539,2204.38 C 725.982,2199.71 730.713,2197.37 736.732,2197.37 C 742.793,2197.37 747.481,2199.58 750.794,2203.99 C 754.122,2208.41 755.836,2214.73 755.937,2222.96 L 755.937,2228.23 Z" marker-start="none" marker-end="none"/>
    <path d="M 837.454,2190.39 L 828.036,2190.39 L 792.25,2245.18 L 792.25,2190.39 L 782.81,2190.39 L 782.81,2261.48 L 792.25,2261.48 L 828.122,2206.45 L 828.122,2261.48 L 837.454,2261.48 L 837.454,2190.39 Z" marker-start="none" marker-end="none"/>
    <path d="M 897.79,2223.24 L 866.974,2223.24 L 866.974,2198.05 L 902.781,2198.05 L 902.781,2190.39 L 857.599,2190.39 L 857.599,2261.48 L 902.282,2261.48 L 902.282,2253.78 L 866.974,2253.78 L 866.974,2230.92 L 897.79,2230.92 L 897.79,2223.24 Z" marker-start="none" marker-end="none"/>
    <path d="M 972.579,2190.39 L 963.161,2190.39 L 927.375,2245.18 L 927.375,2190.39 L 917.935,2190.39 L 917.935,2261.48 L 927.375,2261.48 L 963.247,2206.45 L 963.247,2261.48 L 972.579,2261.48 L 972.579,2190.39 Z" marker-start="none" marker-end="none"/>
   </g>
  </g>
  <path d="M 423.691,2130.86 L 237.508,2737.86 L 239.266,2737.86 L 425.449,2130.86 L 423.691,2130.86 Z" fill="#ffffff" fill-rule="evenodd" stroke-width="0.5" stroke="none" marker-start="none" marker-end="none"/>
 </g>
</svg>
